<svg width="182" height="64" viewBox="0 0 182 64" fill="none" xmlns="http://www.w3.org/2000/svg">
<path d="M99.9345 48.0075H94.2047V26.6297H99.9345V48.0075ZM93.8689 21.0976C93.8689 20.2414 94.1521 19.5367 94.7184 18.9835C95.298 18.4303 96.0817 18.1537 97.0696 18.1537C98.0443 18.1537 98.8215 18.4303 99.401 18.9835C99.9806 19.5367 100.27 20.2414 100.27 21.0976C100.27 21.9669 99.974 22.6782 99.3813 23.2314C98.8017 23.7846 98.0312 24.0612 97.0696 24.0612C96.1081 24.0612 95.3309 23.7846 94.7382 23.2314C94.1586 22.6782 93.8689 21.9669 93.8689 21.0976ZM116.669 31.984C115.892 31.8787 115.207 31.826 114.614 31.826C112.454 31.826 111.038 32.557 110.367 34.0191V48.0075H104.657V26.6297H110.05L110.208 29.1785C111.354 27.2159 112.942 26.2346 114.97 26.2346C115.602 26.2346 116.195 26.3202 116.748 26.4914L116.669 31.984ZM118.151 37.1606C118.151 33.8281 118.895 31.174 120.384 29.1982C121.885 27.2224 123.933 26.2346 126.528 26.2346C128.609 26.2346 130.328 27.0117 131.685 28.566V17.6597H137.415V48.0075H132.258L131.981 45.7354C130.559 47.5136 128.728 48.4027 126.489 48.4027C123.973 48.4027 121.951 47.4148 120.423 45.439C118.908 43.4501 118.151 40.6906 118.151 37.1606ZM123.861 37.5755C123.861 39.5776 124.21 41.1121 124.908 42.179C125.606 43.2459 126.621 43.7794 127.951 43.7794C129.716 43.7794 130.961 43.0352 131.685 41.5468V33.1102C130.974 31.6218 129.742 30.8776 127.99 30.8776C125.237 30.8776 123.861 33.1102 123.861 37.5755ZM151.68 48.4027C148.545 48.4027 145.99 47.4412 144.014 45.5181C142.051 43.595 141.07 41.0331 141.07 37.8323V37.2791C141.07 35.1321 141.485 33.2156 142.315 31.5296C143.145 29.8305 144.317 28.5265 145.832 27.6176C147.36 26.6956 149.098 26.2346 151.048 26.2346C153.972 26.2346 156.27 27.1566 157.943 29.0006C159.629 30.8447 160.472 33.4593 160.472 36.8444V39.1758H146.859C147.043 40.5721 147.597 41.6917 148.519 42.5347C149.454 43.3777 150.633 43.7991 152.055 43.7991C154.255 43.7991 155.974 43.0023 157.212 41.4085L160.018 44.5499C159.161 45.7617 158.002 46.7101 156.54 47.395C155.078 48.0668 153.458 48.4027 151.68 48.4027ZM151.028 30.8579C149.895 30.8579 148.973 31.2398 148.262 32.0038C147.564 32.7678 147.116 33.861 146.918 35.2836H154.861V34.8292C154.835 33.5647 154.492 32.59 153.833 31.905C153.175 31.2069 152.24 30.8579 151.028 30.8579ZM171.457 41.0331L175.429 26.6297H181.395L174.184 48.0075H168.731L161.519 26.6297H167.486L171.457 41.0331Z" fill="#CCE4FF"/>
<path fill-rule="evenodd" clip-rule="evenodd" d="M83.9771 26.2982V27.2569C83.9771 27.2569 82.1208 24.8596 78.1669 24.8596C71.638 24.8596 66.5454 29.8319 66.5454 36.7205C66.5454 43.5498 71.5782 48.5814 78.1669 48.5814C82.1806 48.5814 83.9771 46.1254 83.9771 46.1254V47.1433C83.9771 47.6227 84.3373 47.9811 84.8161 47.9811H89.6676V25.4568H84.8161C84.3373 25.4586 83.9771 25.8787 83.9771 26.2982ZM79.1256 43.1907C81.2818 43.1907 83.0794 42.0525 83.9771 40.7342V32.7068C83.1393 31.4489 81.2225 30.2508 79.1256 30.2508C75.2921 30.2508 72.3562 32.647 72.3562 36.7205C72.3562 40.7946 75.2921 43.1907 79.1256 43.1907Z" fill="#CCE4FF"/>
<g clip-path="url(#clip0)">
<path d="M46.9786 35.6015C46.9786 46.2165 38.9284 54.8218 28.9983 54.8218C19.0682 54.8218 11.018 46.2165 11.018 35.6015C11.018 24.9866 19.0682 16.3812 28.9983 16.3812C38.9284 16.3812 46.9786 24.9866 46.9786 35.6015Z" fill="#CCE4FF"/>
<path d="M5.7363 61.3375C7.47346 62.4524 9.4102 62.9999 11.3382 62.9999C13.8754 62.9999 16.3975 62.0501 18.422 60.1944L28.9983 50.5035L39.574 60.1944C43.1355 63.4585 48.2346 63.9208 52.2597 61.3375C57.106 58.2292 58.9233 51.5609 56.3954 46.1552L38.0815 7.00068C36.3496 3.2999 32.8689 0.999969 28.9983 0.999969C25.1277 0.999969 21.6464 3.29865 19.9145 7.00068L1.60119 46.1564C-0.927293 51.5609 0.890051 58.2292 5.7363 61.3375ZM23.0049 35.5965C23.0049 32.064 25.6931 29.1898 28.9983 29.1898C32.3029 29.1898 34.9917 32.064 34.9917 35.5965C34.9917 37.6912 31.8417 41.3176 29.0615 43.8115L28.9983 43.7539L28.9333 43.814C26.1526 41.3244 23.0049 37.7006 23.0049 35.5965ZM5.88965 48.447L24.2036 9.29311C25.1178 7.33854 26.9544 6.12538 28.9983 6.12538C31.0422 6.12538 32.8782 7.33854 33.793 9.29311L52.1064 48.447C53.521 51.4714 52.5044 55.2035 49.7915 56.9428C47.5405 58.3856 44.6877 58.1291 42.6942 56.3022L32.7512 47.1913C35.6075 44.5547 39.7865 39.9543 39.7865 35.5965C39.7865 29.2386 34.9472 24.0643 28.9983 24.0643C23.0494 24.0643 18.2101 29.2386 18.2101 35.5965C18.2101 39.9543 22.3886 44.5547 25.2448 47.1925L15.3018 56.3034C13.3083 58.1303 10.4555 58.3869 8.20449 56.9441C5.49165 55.2035 4.47557 51.4714 5.88965 48.447Z" fill="#007AFF"/>
</g>
<defs>
<clipPath id="clip0">
<rect width="58" height="62" fill="white" transform="translate(0 1)"/>
</clipPath>
</defs>
</svg>
